<svg height="512" viewBox="0 0 64 64" width="512" xmlns="http://www.w3.org/2000/svg" xmlns:xlink="http://www.w3.org/1999/xlink"><linearGradient id="New_Gradient_Swatch" gradientUnits="userSpaceOnUse" x1="29" x2="29" y1="64" y2="-.019"><stop offset="0" stop-color="#e93e3a"/><stop offset=".35" stop-color="#ed683c"/><stop offset=".7" stop-color="#f3903f"/><stop offset="1" stop-color="#fdc70c"/></linearGradient><linearGradient id="New_Gradient_Swatch-2" x1="35" x2="35" xlink:href="#New_Gradient_Swatch" y2="-.019"/><linearGradient id="New_Gradient_Swatch-3" x1="32" x2="32" xlink:href="#New_Gradient_Swatch" y1="64.001" y2="-.018"/><linearGradient id="New_Gradient_Swatch-5" x1="10" x2="10" xlink:href="#New_Gradient_Swatch" y2="-.019"/><linearGradient id="New_Gradient_Swatch-6" x1="14" x2="14" xlink:href="#New_Gradient_Swatch" y2="-.019"/><linearGradient id="New_Gradient_Swatch-7" x1="18" x2="18" xlink:href="#New_Gradient_Swatch" y2="-.019"/><linearGradient id="New_Gradient_Swatch-9" x1="16" x2="16" xlink:href="#New_Gradient_Swatch" y1="64.001" y2="-.018"/><linearGradient id="New_Gradient_Swatch-10" x1="13" x2="13" xlink:href="#New_Gradient_Swatch" y1="64.001" y2="-.018"/><g id="Browser-Online-Video-Education-Learning"><path d="m28 28h2v2h-2z" fill="url(#New_Gradient_Swatch)"/><path d="m34 28h2v2h-2z" fill="url(#New_Gradient_Swatch-2)"/><path d="m56 2h-48a5 5 0 0 0 -5 5v50a5 5 0 0 0 5 5h48a5 5 0 0 0 5-5v-50a5 5 0 0 0 -5-5zm3 55a3.009 3.009 0 0 1 -3 3h-48a3.009 3.009 0 0 1 -3-3v-45h54zm0-47h-54v-3a3.009 3.009 0 0 1 3-3h48a3.009 3.009 0 0 1 3 3z" fill="url(#New_Gradient_Swatch-3)"/><path d="m45 25v-6a1.014 1.014 0 0 0 -.68-.95l-12-4a1 1 0 0 0 -.64 0l-12 4a1 1 0 0 0 0 1.9l4.32 1.44v4.61a3 3 0 0 0 0 6h.26a8.06 8.06 0 0 0 3.74 4.92v1.43l-4.85 2.16a7 7 0 0 0 -4.15 6.39v2.1a1 1 0 0 0 1 1h24a1 1 0 0 0 1-1v-2.1a7 7 0 0 0 -4.15-6.39l-4.85-2.16v-1.43a8.06 8.06 0 0 0 3.74-4.92h.26a3 3 0 0 0 0-6v-4.61l3-1v4.61zm-21 5a1 1 0 0 1 0-2zm4.98 10.11.68.34-.37.73-1.58.53-.24-.94zm-.73 7.89h-7.25v-1.1a5 5 0 0 1 2.97-4.57l1.65-.73.41 1.64a1.017 1.017 0 0 0 .49.64 1 1 0 0 0 .48.12 1.185 1.185 0 0 0 .32-.05l2.36-.79zm2.09 0 .96-3.29a.99.99 0 0 0 1.4 0l.96 3.29zm.88-6.2.4-.8h.76l.4.8-.78.79zm2.78-3.42-1.24.62h-1.52l-1.24-.62v-.64a7.822 7.822 0 0 0 4 0zm3 5.62a1 1 0 0 0 .48-.12 1.017 1.017 0 0 0 .49-.64l.41-1.64 1.65.73a5 5 0 0 1 2.97 4.57v1.1h-7.25l-1.43-4.84 2.36.79a1.185 1.185 0 0 0 .32.05zm-.47-3.23-.24.94-1.58-.53-.37-.73.68-.34zm1.47-10.77a6 6 0 0 1 -12 0v-3h12zm0-5h-12v-2.95l5.68 1.9a1.049 1.049 0 0 0 .64 0l5.68-1.9zm3 4a1 1 0 0 1 -1 1v-2a1 1 0 0 1 1 1zm-9-7.05-8.84-2.95 8.84-2.95 8.84 2.95z" fill="url(#New_Gradient_Swatch-3)"/><path d="m9 6h2v2h-2z" fill="url(#New_Gradient_Swatch-5)"/><path d="m13 6h2v2h-2z" fill="url(#New_Gradient_Swatch-6)"/><path d="m17 6h2v2h-2z" fill="url(#New_Gradient_Swatch-7)"/><path d="m28 52a3 3 0 0 0 -2.816 2h-6.184v2h6.184a2.982 2.982 0 0 0 5.632 0h20.184v-2h-20.184a3 3 0 0 0 -2.816-2zm0 4a1 1 0 1 1 1-1 1 1 0 0 1 -1 1z" fill="url(#New_Gradient_Swatch-2)"/><path d="m15 53h2v4h-2z" fill="url(#New_Gradient_Swatch-9)"/><path d="m12 53h2v4h-2z" fill="url(#New_Gradient_Swatch-10)"/></g></svg>